<svg width="520" height="520" viewBox="0 0 520 520" fill="none" xmlns="http://www.w3.org/2000/svg">
  <rect width="520" height="520" rx="64" fill="#0B1223"/>
  <circle cx="260" cy="260" r="202" fill="#10213C"/>
  <circle cx="260" cy="260" r="154" fill="#0F172A" stroke="#22C55E" stroke-width="10"/>
  <path d="M260 108C211.399 108 172 147.399 172 196V246C172 294.601 211.399 334 260 334C308.601 334 348 294.601 348 246V196C348 147.399 308.601 108 260 108Z" fill="#1E293B" stroke="#38BDF8" stroke-width="10"/>
  <path d="M216 204C216 179.699 235.699 160 260 160C284.301 160 304 179.699 304 204V246C304 270.301 284.301 290 260 290C235.699 290 216 270.301 216 246V204Z" fill="#22C55E"/>
  <path d="M135 232V248C135 317.036 190.964 373 260 373C329.036 373 385 317.036 385 248V232" stroke="#F8FAFC" stroke-width="18" stroke-linecap="round"/>
  <path d="M260 373V424" stroke="#F8FAFC" stroke-width="18" stroke-linecap="round"/>
  <path d="M218 424H302" stroke="#F8FAFC" stroke-width="18" stroke-linecap="round"/>
  <circle cx="372" cy="142" r="46" fill="#F59E0B"/>
  <path d="M357 128C362.227 118.68 373.894 115.482 383.014 121.07C392.673 126.986 395.553 139.856 389.258 149.26C385.444 154.956 379.022 157.997 373.071 160.746C367.995 163.091 364 165.264 364 171" stroke="#0B1223" stroke-width="13" stroke-linecap="round"/>
  <circle cx="364" cy="190" r="7" fill="#0B1223"/>
  <path d="M128 355L172 341L202 376L248 358L289 391L334 355L392 376" stroke="#22C55E" stroke-width="12" stroke-linecap="round" stroke-linejoin="round"/>
</svg>
